<?xml version="1.0" encoding="utf-8"?>
<!-- Generator: Adobe Illustrator 19.0.0, SVG Export Plug-In . SVG Version: 6.00 Build 0)  -->
<svg version="1.1" xmlns="http://www.w3.org/2000/svg" xmlns:xlink="http://www.w3.org/1999/xlink" x="0px" y="0px"
	 viewBox="0 0 652.9 352.2" style="enable-background:new 0 0 652.9 352.2;" xml:space="preserve">
<style type="text/css">
	.st0{fill:#66267B;}
	.st1{fill:url(#SVGID_1_);}
	.st2{fill:#00A29C;}
	.st3{fill:#00A7A6;}
	.st4{fill:#5B2D87;}
	.st5{fill:url(#SVGID_2_);}
	.st6{fill:url(#SVGID_3_);}
	.st7{fill:url(#SVGID_4_);}
	.st8{fill:url(#SVGID_5_);}
	.st9{fill:url(#SVGID_6_);}
	.st10{fill:#FFFFFF;}
</style>
<g id="Capa_1">
</g>
<g id="cmyk_ajustes">
</g>
<g id="LOGO_CORRECTO">
	<g>
		<path class="st0" d="M-1798.9,1500.2c-13.4,0-30.2-12.6-30.2-26c0-14.1,8.3-19.3,8.3-19.3s-30.6-0.4-30.6-33.3
			c0-10.7,7.2-19.8,14-24.9c4.1-3.1,10.1-4.8,16.2-5.7h26.1v-11.7l-17.8-0.4c-7.6-0.8-10.2-2.5-13.5-6.4c-1.3-1.3-5.4-6.2-5.4-13.7
			c0-12.4,8.5-21.2,21.9-21.2c0.2,0,0.5,0,0.7,0c-0.5-1.9-0.7-4-0.7-6.1c0-14.1,11.4-25.5,25.5-25.5c8.1,0,15.4,4.3,20.4,10.6
			c1.1-4.3,5-14.5,7.3-17.3c0,0-5.6-4.1-11.3-6.8c-5.1-2.5-10.8-3.3-16.5-3.3c-5.7,0-11.2,1.1-16.5,3.3c-5,2.1-9.6,5.2-13.4,9.1
			c-3.9,3.9-6.9,8.4-9.1,13.4c-1.2,2.9-2.1,5.9-2.7,9c-4.8,2.1-9.6,4.7-13.3,8.4c-3.8,3.8-6.8,7.8-8.9,12.7
			c-2.1,5.1-2.9,8.9-2.9,14.4c0,5.8,1.2,12.7,6.1,20.3c-6.4,4-11.8,8.4-15.4,14.7c-4.4,7.4-7.4,15-7.4,24.9
			c0,10.5,2.3,19.9,7.5,27.5c4.4,6.5,9.1,10.5,15.7,14.8c0.2,0.2-1,6.4-0.6,12.8c0.2,3.2,0.9,6.6,1.7,9.6c0.8,2.9,1.9,5.7,3.4,8.4
			c2.7,4.6,5.7,8.9,10.1,12.7c8,6.8,19.7,11.2,33.5,11.2c14.9,0,28-6.9,33.1-10.5c5.4-3.8,13.6-8.6,19.1-23.4
			c-6.2-0.6-12.1-2-17.4-4.2C-1770,1492.9-1786.5,1500.2-1798.9,1500.2z"/>
		<linearGradient id="SVGID_1_" gradientUnits="userSpaceOnUse" x1="-1749.6042" y1="1439.6956" x2="-1749.6042" y2="1333.1561">
			<stop  offset="0" style="stop-color:#66267B"/>
			<stop  offset="1" style="stop-color:#00A29C"/>
		</linearGradient>
		<path class="st1" d="M-1756.5,1336.3c0,30.9-0.3,121.6-0.3,121.6c0,7.8-1.9,14.5-5,20.2c5.3,2.2,11.3,3.6,17.4,4.2
			c3.4-9.3,5.8-22.4,5.8-41.7c0-27.3,0.2-108.9,0.2-108.9c0-2.2,0.4-4.5,1-6.6c-5.3-0.9-10.9-2.6-16.3-3.4
			C-1755.2,1326.2-1756.5,1331.4-1756.5,1336.3z"/>
		<path class="st2" d="M-1636.8,1394.8c-3.7-6.3-9.4-11.1-15.8-15.1c3.1-5,5.7-12.2,5.7-18c0-5.5-0.4-10.9-2.6-16
			c-2.1-4.9-5-9.3-8.8-13c-3.7-3.7-7.8-5.8-12.6-7.9c-0.6-3.1-1.6-7-2.9-9.9c-2.1-5-5.2-9.6-9.1-13.4c-3.9-3.9-8.4-6.9-13.4-9.1
			c-5.2-2.2-10.8-3.3-16.5-3.3c-11.4,0-21.5,4.1-29,12c-2.4,2.6-4.6,5.5-6.4,8.7c-0.1-0.2-3.1,5-5.5,11.9c5.4,0.8,11,2.5,16.3,3.4
			c3.1-10.5,13-19.2,24.7-19.2c14.1,0,25.5,11.4,25.5,25.5c0,2.1-0.3,4.1-0.7,6.1c0.2,0,0.5,0,0.7,0c13.3,0,22,8.7,22,20.1
			c0,7.4-3.5,11.1-4.9,13.5c-4.6,5.4-12.4,7.5-19.2,8.2l-12.9-0.1v11.7l25.7,0.4c7.7,0,13.8,3.1,19.5,7.6
			c5.7,4.5,10.6,13.5,10.6,24.1c0,29-29.4,31.8-29.4,31.8s8.1,4.8,8.1,19.9c0,13.4-15.6,22.8-29,22.8c-4.4,0-13.4-0.4-21.2-4.7
			c-4.7-2.6-13.7-9.5-13.7-9.5c-2.2,6.1-6.8,14.5-7.8,15.7c5,3.7,5.5,4.6,12.7,8.4c15.2,8.2,25.7,8.5,30,8.5c10.3,0,20.7-3.7,29-9.8
			c4.6-3.4,7.4-7.1,10.1-11.8c1.5-2.6,3.4-6.3,4.2-9.1c0.9-3.1,2.2-9.3,2.2-12.5c0-8.7-1.3-11-1.1-11.2c6.6-4.2,11.5-8.7,15.7-15.2
			c5-7.9,7.4-16.5,7.4-27C-1629.3,1409.5-1632.4,1402.2-1636.8,1394.8z"/>
		<path class="st0" d="M-1743.7,1480.4c0,0-1.4,3.7-1.7,4.6l-17.2-5.3c0,0,1.2-2.1,1.8-3.3L-1743.7,1480.4z"/>
		<g>
			<path class="st3" d="M-1838.5,1696.9c5.7-4.5,9.3-11.4,9.3-19.2c0-13.6-11-24.5-24.5-24.5c-0.5,0-45.7,0-45.7,0v88.7h45
				c14,0,25.3-11.3,25.3-25.3C-1829.1,1708.7-1832.8,1701.6-1838.5,1696.9z M-1855.8,1728.1h-29.9v-26c0,0,29.7,0,29.9,0
				c7.2,0,13,5.9,13,13C-1842.8,1722.3-1848.6,1728.1-1855.8,1728.1z M-1853.4,1688.3h-32.2V1667h32.2c0,0,0,0,0,0
				c5.9,0,10.6,4.8,10.6,10.6C-1842.8,1683.5-1847.6,1688.3-1853.4,1688.3z M-1605,1657.3c0-3-1.8-4.3-5.3-4.3h-5.7v15.1h2.3v-6.5
				h2.6l4,6.5h2.6l-4.3-6.6C-1606.7,1661.2-1605,1660-1605,1657.3z M-1613.8,1659.6v-4.7h3.1c1.6,0,3.3,0.3,3.3,2.2
				c0,2.3-1.7,2.5-3.7,2.5H-1613.8z M-1621.1,1683.7c-3.1-3.1-6.8-5.6-10.9-7.4c-4.2-1.8-8.5-2.7-13.2-2.7h-29.6v68.3h13.8v-54.5
				h15.8c2.7,0,5.3,0.5,7.8,1.6c2.5,1.1,4.6,2.5,6.5,4.3c1.9,1.8,3.3,4,4.4,6.4c1.1,2.5,1.6,5.1,1.6,8v34.1h13.8v-34.1
				c0-4.7-0.9-9.1-2.7-13.2C-1615.6,1690.4-1618,1686.8-1621.1,1683.7z M-1611,1647.5c-7.2,0-13.3,5.5-13.3,13
				c0,7.6,6.1,13.1,13.3,13.1c7.1,0,13.2-5.5,13.2-13.1C-1597.8,1653-1603.9,1647.5-1611,1647.5z M-1611,1671.4
				c-6,0-10.6-4.6-10.6-10.9c0-6.2,4.7-10.9,10.6-10.9c5.9,0,10.6,4.7,10.6,10.9C-1600.4,1666.8-1605.1,1671.4-1611,1671.4z
				 M-1698.3,1741.9h13.2v-45.3h-13.2V1741.9z M-1778.5,1675.5c-3.4-1.3-7-1.9-10.9-1.9c-4.7,0-9,0.9-13.1,2.7
				c-4.1,1.8-7.7,4.3-10.7,7.4c-3.1,3.1-5.5,6.7-7.3,10.8c-1.8,4.1-2.7,8.6-2.7,13.2v34.1h13.8v-34.1c0-2.7,0.5-5.3,1.6-7.8
				c1.1-2.5,2.5-4.6,4.3-6.5c1.8-1.9,4-3.3,6.4-4.4c2.4-1.1,5-1.6,7.7-1.6c1.9,0,3.8,0.3,5.5,0.8c1.8,0.6,3.5,1.3,5.2,2.2l9.7-10
				C-1771.9,1678.5-1775.1,1676.8-1778.5,1675.5z M-1716.4,1683.7c-3.1-3.1-6.8-5.6-10.9-7.4c-4.2-1.8-8.6-2.7-13.2-2.7
				c-4.8,0-9.2,0.9-13.3,2.7c-4.1,1.8-7.7,4.2-10.8,7.4c-3.1,3.1-5.6,6.8-7.4,10.9c-1.8,4.1-2.7,8.6-2.7,13.2
				c0,4.8,0.9,9.2,2.7,13.3c1.8,4.1,4.2,7.7,7.4,10.9c3.1,3.1,6.7,5.6,10.8,7.4c4.1,1.8,8.5,2.7,13.3,2.7h34.1v-34.1
				c0-4.7-0.9-9.1-2.7-13.2C-1710.8,1690.4-1713.2,1686.8-1716.4,1683.7z M-1720.1,1728.1h-20.3c-2.8,0-5.5-0.5-8-1.6
				c-2.5-1.1-4.6-2.5-6.4-4.3c-1.8-1.8-3.3-4-4.3-6.5c-1.1-2.5-1.6-5.1-1.6-8c0-2.8,0.5-5.5,1.6-8c1.1-2.5,2.5-4.6,4.3-6.4
				c1.8-1.8,4-3.3,6.4-4.3c2.5-1.1,5.1-1.6,8-1.6c2.8,0,5.5,0.5,8,1.6c2.5,1.1,4.6,2.5,6.5,4.3c1.8,1.8,3.3,4,4.3,6.4
				c1.1,2.5,1.6,5.1,1.6,8V1728.1z"/>
		</g>
		<g>
			<path class="st4" d="M-1698.3,1686.2h13.5v-12.5h-13.5V1686.2z"/>
			<path class="st4" d="M-1846.2,1577.4c-3-3.3-6.7-5.8-10.8-7.7c-4.2-1.9-8.8-2.8-13.7-2.8c-4.8,0-9.2,0.9-13.4,2.7
				c-4.1,1.8-7.8,4.2-10.9,7.4c-3.2,3.2-5.6,6.8-7.4,11c-1.8,4.2-2.7,8.6-2.7,13.3c0,4.8,0.9,9.2,2.7,13.4c1.8,4.1,4.2,7.8,7.4,10.9
				c3.1,3.2,6.8,5.6,10.9,7.4c4.1,1.8,8.6,2.7,13.4,2.7h19.1v-13.9h-19.1c-2.9,0-5.5-0.5-8-1.6c-2.5-1.1-4.7-2.5-6.5-4.4
				c-1.8-1.8-3.3-4-4.4-6.5c-1.1-2.5-1.6-5.2-1.6-8c0-2.8,0.5-5.5,1.6-8c1.1-2.5,2.5-4.7,4.4-6.5c1.8-1.8,4-3.3,6.5-4.4
				c2.5-1.1,5.2-1.6,8-1.6c3.1,0,5.8,0.6,8.3,1.8c2.5,1.2,4.7,2.8,6.5,4.8c1.8,2,3.2,4.4,4.2,7c0.1,0.1,0.1,0.3,0.1,0.4h-24.3v13.9
				h38.7c0,0,0.8-1.6,0.8-7.8c0-6-1.7-10.5-2.5-12.5C-1840.7,1584.1-1843.2,1580.7-1846.2,1577.4z M-1645.2,1577
				c-3.2-3.2-6.8-5.6-11-7.4c-4.2-1.8-8.6-2.7-13.3-2.7h-29.8v68.7h13.9v-54.8h15.9c2.7,0,5.4,0.5,7.9,1.6c2.5,1.1,4.7,2.5,6.6,4.4
				c1.9,1.8,3.4,4,4.4,6.5c1.1,2.5,1.6,5.2,1.6,8v34.3h13.9v-34.3c0-4.7-0.9-9.1-2.7-13.3C-1639.5,1583.8-1642,1580.1-1645.2,1577z
				 M-1769.5,1568.7h-15.6l-20.8,38.7l-20.8-38.7h-15.6l36.3,68.7l0-0.1l0,0.1L-1769.5,1568.7z M-1715.3,1577.4
				c-3-3.3-6.7-5.8-10.8-7.7c-4.2-1.9-8.8-2.8-13.7-2.8c-4.8,0-9.2,0.9-13.4,2.7c-4.1,1.8-7.8,4.2-10.9,7.4c-3.2,3.2-5.6,6.8-7.4,11
				c-1.8,4.2-2.7,8.6-2.7,13.3c0,4.8,0.9,9.2,2.7,13.4c1.8,4.1,4.2,7.8,7.4,10.9c3.1,3.2,6.8,5.6,10.9,7.4c4.1,1.8,8.6,2.7,13.4,2.7
				h19.1v-13.9h-19.1c-2.9,0-5.5-0.5-8-1.6c-2.5-1.1-4.7-2.5-6.5-4.4c-1.8-1.8-3.3-4-4.4-6.5c-1.1-2.5-1.6-5.2-1.6-8
				c0-2.8,0.5-5.5,1.6-8c1.1-2.5,2.5-4.7,4.4-6.5c1.8-1.8,4-3.3,6.5-4.4c2.5-1.1,5.2-1.6,8-1.6c3,0,5.8,0.6,8.3,1.8
				c2.5,1.2,4.7,2.8,6.5,4.8c1.8,2,3.2,4.4,4.2,7c0.1,0.1,0.1,0.3,0.1,0.4h-24.3v13.9h38.7c0,0,0.8-1.6,0.8-7.8
				c0-6-1.7-10.5-2.5-12.5C-1709.8,1584.1-1712.3,1580.7-1715.3,1577.4z M-1615.5,1555.4h-13.6v45.8c0,4.9,0.9,9.4,2.8,13.7
				c1.9,4.2,4.4,7.9,7.6,10.9c3.2,3.1,6.9,5.4,11.1,7.2c4.2,1.7,8.7,2.6,13.5,2.6v-13.9c-2.8,0-5.6-0.5-8.2-1.5
				c-2.6-1-4.9-2.4-6.8-4.3c-1.9-1.8-3.5-4-4.6-6.5c-1.1-2.5-1.7-5.3-1.7-8.2v-20.7h23.2v-13.6h-23.5V1555.4z"/>
		</g>
	</g>
	<g>
		<path class="st0" d="M-6040.3,1550.5c-12.8,0-29-12.1-29-25c0-13.6,7.9-18.6,7.9-18.6s-29.4-0.4-29.4-32c0-10.3,6.9-19,13.4-23.9
			c4-3,9.7-4.6,15.6-5.5h25.1v-11.2l-17-0.4c-7.3-0.8-9.8-2.4-13-6.2c-1.3-1.3-5.2-6-5.2-13.1c0-11.9,8.2-20.4,21-20.4
			c0.2,0,0.5,0,0.7,0c-0.5-1.9-0.7-3.8-0.7-5.8c0-13.5,11-24.5,24.5-24.5c7.8,0,14.8,4.1,19.6,10.2c1-4.1,4.8-14,7-16.6
			c0,0-5.4-3.9-10.8-6.5c-4.9-2.4-10.3-3.2-15.8-3.2c-5.5,0-10.8,1.1-15.8,3.2c-4.8,2-9.2,5-12.9,8.7c-3.7,3.7-6.7,8.1-8.7,12.9
			c-1.2,2.8-2,5.7-2.6,8.7c-4.6,2-9.2,4.5-12.8,8c-3.6,3.6-6.6,7.5-8.6,12.2c-2.1,4.9-2.8,8.6-2.8,13.9c0,5.6,1.2,12.2,5.9,19.5
			c-6.2,3.8-11.3,8.1-14.8,14.1c-4.2,7.1-7.1,14.4-7.1,23.9c0,10.1,2.3,19.1,7.2,26.4c4.2,6.2,8.7,10.1,15.1,14.2
			c0.2,0.1-1,6.1-0.6,12.3c0.2,3.1,0.8,6.3,1.7,9.3c0.8,2.8,1.8,5.5,3.3,8c2.6,4.5,5.5,8.6,9.7,12.2c7.6,6.5,19,10.7,32.1,10.7
			c14.3,0,26.9-6.6,31.8-10.1c5.2-3.6,13-8.3,18.3-22.5c-5.9-0.6-11.6-1.9-16.7-4C-6012.5,1543.5-6028.3,1550.5-6040.3,1550.5z"/>
		<linearGradient id="SVGID_2_" gradientUnits="userSpaceOnUse" x1="-5992.897" y1="1492.3892" x2="-5992.897" y2="1390.0966">
			<stop  offset="0" style="stop-color:#66267B"/>
			<stop  offset="1" style="stop-color:#00A29C"/>
		</linearGradient>
		<path class="st5" d="M-5999.5,1393.2c0,29.6-0.3,116.8-0.3,116.8c0,7.5-1.8,13.9-4.8,19.4c5.1,2.1,10.8,3.4,16.7,4
			c3.3-8.9,5.6-21.5,5.6-40c0-26.2,0.2-104.5,0.2-104.5c0-2.1,0.3-4.3,1-6.4c-5.1-0.9-10.4-2.5-15.6-3.2
			C-5998.3,1383.4-5999.5,1388.4-5999.5,1393.2z"/>
		<path class="st2" d="M-5884.5,1449.3c-3.5-6-9.1-10.7-15.2-14.5c3-4.8,5.5-11.7,5.5-17.3c0-5.3-0.4-10.5-2.5-15.3
			c-2-4.7-4.8-8.9-8.4-12.5c-3.6-3.6-7.5-5.6-12.1-7.5c-0.5-3-1.6-6.7-2.8-9.5c-2-4.8-5-9.2-8.7-12.9c-3.7-3.7-8.1-6.6-12.9-8.7
			c-5-2.1-10.3-3.2-15.8-3.2c-11,0-20.6,4-27.8,11.5c-2.3,2.4-4.4,5.2-6.2,8.3c-0.1-0.2-3,4.8-5.3,11.4c5.2,0.7,10.5,2.4,15.6,3.2
			c2.9-10,12.5-18.4,23.7-18.4c13.5,0,24.5,11,24.5,24.5c0,2-0.2,3.9-0.7,5.8c0.2,0,0.5,0,0.7,0c12.8,0,21.1,8.3,21.1,19.3
			c0,7.1-3.4,10.7-4.7,12.9c-4.4,5.2-11.9,7.2-18.5,7.8l-12.4-0.1v11.2l24.7,0.3c7.4,0,13.2,3,18.8,7.3c5.5,4.4,10.2,13,10.2,23.2
			c0,27.9-28.2,30.5-28.2,30.5s7.7,4.6,7.7,19.1c0,12.8-15,21.9-27.8,21.9c-4.2,0-12.9-0.4-20.4-4.6c-4.5-2.5-13.1-9.1-13.1-9.1
			c-2.1,5.8-6.5,13.9-7.4,15.1c4.8,3.6,5.3,4.4,12.2,8.1c14.6,7.9,24.7,8.2,28.8,8.2c9.9,0,19.9-3.5,27.8-9.4
			c4.5-3.3,7.1-6.8,9.7-11.3c1.5-2.5,3.2-6,4-8.8c0.8-2.9,2.1-8.9,2.1-12c0-8.3-1.3-10.6-1-10.7c6.4-4.1,11.1-8.3,15.1-14.6
			c4.8-7.5,7.1-15.8,7.1-25.9C-5877.4,1463.4-5880.4,1456.4-5884.5,1449.3z"/>
		<path class="st0" d="M-5987.2,1531.5c0,0-1.3,3.6-1.7,4.4l-16.5-5.1c0,0,1.2-2,1.7-3.2L-5987.2,1531.5z"/>
		<path class="st3" d="M-5918.6,1637.4c5.5-4.3,9-11,9-18.5c0-13-10.5-23.5-23.6-23.5c-0.5,0-43.9,0-43.9,0v85.2h43.2
			c13.5,0,24.3-10.8,24.3-24.3C-5909.6,1648.7-5913.1,1641.9-5918.6,1637.4z M-5935.1,1667.4h-28.7v-25c0,0,28.5,0,28.7,0
			c6.9,0,12.4,5.7,12.4,12.5C-5922.7,1661.8-5928.3,1667.4-5935.1,1667.4z M-5932.9,1629.2h-30.9v-20.4h30.9c0,0,0,0,0,0
			c5.6,0,10.2,4.6,10.2,10.2C-5922.7,1624.6-5927.3,1629.2-5932.9,1629.2z M-5694.4,1599.4c0-2.9-1.7-4.1-5.1-4.1h-5.5v14.5h2.2
			v-6.3h2.5l3.8,6.3h2.5l-4.1-6.4C-5696.1,1603.1-5694.4,1602-5694.4,1599.4z M-5702.9,1601.6v-4.5h3c1.5,0,3.2,0.3,3.2,2.1
			c0,2.2-1.7,2.4-3.5,2.4H-5702.9z M-5710,1624.7c-3-3-6.5-5.4-10.5-7.1c-4-1.7-8.2-2.5-12.7-2.5h-28.5v65.5h13.3v-52.3h15.2
			c2.6,0,5.1,0.5,7.5,1.5c2.4,1,4.5,2.4,6.3,4.1c1.8,1.7,3.2,3.8,4.2,6.2c1,2.4,1.5,4.9,1.5,7.6v32.8h13.3v-32.8
			c0-4.5-0.9-8.7-2.5-12.7C-5704.6,1631.2-5706.9,1627.7-5710,1624.7z M-5700.2,1590c-6.9,0-12.7,5.3-12.7,12.5
			c0,7.3,5.8,12.6,12.7,12.6c6.8,0,12.7-5.3,12.7-12.6C-5687.5,1595.3-5693.4,1590-5700.2,1590z M-5700.2,1613
			c-5.7,0-10.2-4.4-10.2-10.5c0-5.9,4.5-10.4,10.2-10.4c5.7,0,10.2,4.5,10.2,10.4C-5690.1,1608.5-5694.5,1613-5700.2,1613z
			 M-5784,1680.6h12.7v-43.4h-12.7V1680.6z M-5861,1616.9c-3.3-1.2-6.7-1.8-10.4-1.8c-4.5,0-8.7,0.9-12.6,2.6
			c-3.9,1.7-7.4,4.1-10.3,7.1c-2.9,3-5.3,6.4-7,10.4c-1.7,4-2.6,8.2-2.6,12.7v32.8h13.2v-32.8c0-2.6,0.5-5.1,1.5-7.5
			c1-2.4,2.4-4.5,4.1-6.3c1.8-1.8,3.8-3.2,6.1-4.2c2.3-1,4.8-1.5,7.4-1.5c1.8,0,3.6,0.3,5.3,0.8c1.7,0.5,3.4,1.2,5,2.1l9.3-9.6
			C-5854.6,1619.7-5857.7,1618.1-5861,1616.9z M-5801.3,1624.7c-3-3-6.5-5.4-10.5-7.1c-4-1.7-8.2-2.5-12.7-2.5
			c-4.6,0-8.8,0.8-12.7,2.5c-3.9,1.7-7.4,4.1-10.4,7.1c-3,3-5.4,6.5-7.1,10.5c-1.7,4-2.6,8.2-2.6,12.7c0,4.6,0.8,8.8,2.6,12.7
			c1.7,3.9,4,7.4,7.1,10.4c3,3,6.5,5.4,10.4,7.1c3.9,1.7,8.2,2.5,12.7,2.5h32.8v-32.8c0-4.5-0.9-8.7-2.5-12.7
			C-5796,1631.2-5798.3,1627.7-5801.3,1624.7z M-5805,1667.4h-19.5c-2.7,0-5.3-0.5-7.6-1.5c-2.4-1-4.4-2.4-6.2-4.1
			c-1.7-1.7-3.1-3.8-4.2-6.2c-1-2.4-1.5-4.9-1.5-7.6c0-2.7,0.5-5.3,1.5-7.6c1-2.4,2.4-4.4,4.2-6.2c1.7-1.7,3.8-3.1,6.2-4.1
			c2.4-1,4.9-1.5,7.6-1.5s5.3,0.5,7.6,1.5c2.4,1,4.4,2.4,6.2,4.1c1.8,1.7,3.1,3.8,4.2,6.2c1,2.4,1.5,4.9,1.5,7.6V1667.4z"/>
		<path class="st4" d="M-6227.2,1625.2c-2.9-3.1-6.4-5.6-10.3-7.4c-4-1.8-8.4-2.7-13.1-2.7c-4.6,0-8.8,0.8-12.7,2.5
			c-3.9,1.7-7.4,4.1-10.4,7.1c-3,3-5.4,6.5-7.1,10.5c-1.7,4-2.6,8.2-2.6,12.7c0,4.6,0.8,8.8,2.6,12.7c1.7,3.9,4,7.4,7.1,10.4
			c3,3,6.5,5.4,10.4,7.1c3.9,1.7,8.2,2.5,12.7,2.5h18.2v-13.3h-18.2c-2.7,0-5.3-0.5-7.6-1.5c-2.4-1-4.4-2.4-6.2-4.1
			c-1.7-1.7-3.1-3.8-4.2-6.2c-1-2.4-1.5-4.9-1.5-7.6c0-2.7,0.5-5.3,1.5-7.6c1-2.4,2.4-4.4,4.2-6.2c1.7-1.7,3.8-3.1,6.2-4.1
			c2.4-1,4.9-1.5,7.6-1.5c2.9,0,5.6,0.6,7.9,1.7c2.4,1.1,4.4,2.7,6.2,4.6c1.8,1.9,3.1,4.2,4,6.7c0,0.1,0.1,0.3,0.1,0.4h-23.2v13.3
			h36.9c0,0,0.7-1.5,0.7-7.5c0-5.8-1.6-10-2.4-11.9C-6221.9,1631.6-6224.3,1628.3-6227.2,1625.2z M-6035.4,1624.8
			c-3-3-6.5-5.4-10.5-7.1c-4-1.7-8.2-2.5-12.7-2.5h-28.5v65.5h13.3v-52.3h15.2c2.6,0,5.1,0.5,7.5,1.5c2.4,1,4.5,2.4,6.3,4.1
			c1.8,1.7,3.2,3.8,4.2,6.2c1,2.4,1.5,4.9,1.5,7.6v32.8h13.3v-32.8c0-4.5-0.9-8.7-2.5-12.7
			C-6030,1631.3-6032.4,1627.8-6035.4,1624.8z M-6154,1616.9h-14.9l-19.8,36.9l-19.8-36.9h-14.9l34.6,65.5l0-0.1l0,0.1L-6154,1616.9
			z M-6102.3,1625.2c-2.9-3.1-6.4-5.6-10.3-7.4c-4-1.8-8.4-2.7-13.1-2.7c-4.6,0-8.8,0.8-12.7,2.5c-3.9,1.7-7.4,4.1-10.4,7.1
			c-3,3-5.4,6.5-7.1,10.5c-1.7,4-2.5,8.2-2.5,12.7c0,4.6,0.8,8.8,2.5,12.7c1.7,3.9,4,7.4,7.1,10.4c3,3,6.5,5.4,10.4,7.1
			c3.9,1.7,8.2,2.5,12.7,2.5h18.2v-13.3h-18.2c-2.7,0-5.3-0.5-7.6-1.5c-2.4-1-4.4-2.4-6.2-4.1c-1.7-1.7-3.1-3.8-4.2-6.2
			c-1-2.4-1.5-4.9-1.5-7.6c0-2.7,0.5-5.3,1.5-7.6c1-2.4,2.4-4.4,4.2-6.2c1.7-1.7,3.8-3.1,6.2-4.1c2.4-1,4.9-1.5,7.6-1.5
			c2.9,0,5.6,0.6,7.9,1.7c2.4,1.1,4.4,2.7,6.2,4.6c1.8,1.9,3.1,4.2,4,6.7c0.1,0.1,0.1,0.3,0.1,0.4h-23.2v13.3h36.9
			c0,0,0.7-1.5,0.7-7.5c0-5.8-1.6-10-2.4-11.9C-6097.1,1631.6-6099.4,1628.3-6102.3,1625.2z M-6007.1,1604.2h-13v43.7
			c0,4.7,0.9,9,2.7,13c1.8,4,4.2,7.5,7.3,10.4c3.1,2.9,6.6,5.2,10.6,6.8c4,1.7,8.3,2.5,12.9,2.5v-13.3c-2.7,0-5.3-0.5-7.8-1.4
			c-2.5-1-4.6-2.3-6.5-4.1c-1.8-1.7-3.3-3.8-4.4-6.2c-1.1-2.4-1.6-5-1.6-7.8v-19.7h22.1v-13h-22.4V1604.2z M-5784,1627.2h13v-12h-13
			V1627.2z"/>
	</g>
	<g>
		<path class="st0" d="M-4183.8,1590.8c-10.4,0-23.5-9.8-23.5-20.2c0-11,6.4-15,6.4-15s-23.8-0.3-23.8-25.9
			c0-8.3,5.6-15.3,10.8-19.3c3.2-2.4,7.8-3.7,12.6-4.4h20.3v-9.1l-13.8-0.3c-5.9-0.7-7.9-2-10.5-5c-1-1-4.2-4.8-4.2-10.6
			c0-9.7,6.6-16.5,17-16.5c0.2,0,0.4,0,0.6,0c-0.4-1.5-0.6-3.1-0.6-4.7c0-10.9,8.9-19.8,19.8-19.8c6.3,0,11.9,3.3,15.8,8.3
			c0.8-3.3,3.9-11.3,5.7-13.4c0,0-4.4-3.2-8.8-5.3c-4-1.9-8.4-2.6-12.8-2.6c-4.4,0-8.7,0.9-12.8,2.6c-3.9,1.7-7.4,4-10.4,7
			c-3,3-5.4,6.5-7,10.4c-1,2.3-1.7,4.6-2.1,7c-3.7,1.6-7.4,3.6-10.3,6.5c-2.9,2.9-5.3,6.1-6.9,9.8c-1.7,3.9-2.3,6.9-2.3,11.2
			c0,4.5,1,9.9,4.8,15.8c-5,3.1-9.1,6.5-12,11.4c-3.4,5.8-5.7,11.7-5.7,19.3c0,8.1,1.8,15.4,5.8,21.3c3.4,5,7.1,8.2,12.2,11.5
			c0.2,0.1-0.8,4.9-0.5,9.9c0.2,2.5,0.7,5.1,1.3,7.5c0.6,2.2,1.5,4.5,2.7,6.5c2.1,3.6,4.4,6.9,7.9,9.8c6.2,5.3,15.3,8.7,26,8.7
			c11.5,0,21.7-5.4,25.7-8.1c4.2-2.9,10.5-6.7,14.8-18.2c-4.8-0.5-9.4-1.6-13.5-3.2C-4161.3,1585.1-4174.1,1590.8-4183.8,1590.8z"/>
		<linearGradient id="SVGID_3_" gradientUnits="userSpaceOnUse" x1="-4145.5171" y1="1543.8439" x2="-4145.5171" y2="1461.1519">
			<stop  offset="0" style="stop-color:#66267B"/>
			<stop  offset="1" style="stop-color:#00A29C"/>
		</linearGradient>
		<path class="st6" d="M-4150.9,1463.6c0,24-0.2,94.4-0.2,94.4c0,6.1-1.5,11.3-3.9,15.7c4.1,1.7,8.7,2.8,13.5,3.2
			c2.7-7.2,4.5-17.4,4.5-32.4c0-21.2,0.1-84.5,0.1-84.5c0-1.7,0.3-3.5,0.8-5.1c-4.1-0.7-8.4-2-12.6-2.6
			C-4149.9,1455.8-4150.9,1459.8-4150.9,1463.6z"/>
		<path class="st2" d="M-4057.9,1509c-2.9-4.9-7.3-8.6-12.3-11.7c2.4-3.9,4.4-9.5,4.4-14c0-4.3-0.3-8.5-2-12.4
			c-1.6-3.8-3.9-7.2-6.8-10.1c-2.9-2.9-6.1-4.5-9.8-6.1c-0.4-2.4-1.3-5.4-2.2-7.7c-1.7-3.9-4-7.4-7-10.4c-3-3-6.5-5.4-10.4-7
			c-4.1-1.7-8.4-2.6-12.8-2.6c-8.9,0-16.7,3.2-22.5,9.3c-1.9,2-3.6,4.2-5,6.7c-0.1-0.1-2.4,3.9-4.3,9.2c4.2,0.6,8.5,1.9,12.6,2.6
			c2.4-8.1,10.1-14.9,19.2-14.9c10.9,0,19.8,8.9,19.8,19.8c0,1.6-0.2,3.2-0.6,4.7c0.2,0,0.4,0,0.6,0c10.4,0,17,6.7,17,15.6
			c0,5.7-2.7,8.6-3.8,10.5c-3.5,4.2-9.6,5.8-14.9,6.3l-10,0v9.1l19.9,0.3c6,0,10.7,2.4,15.2,5.9c4.4,3.5,8.2,10.5,8.2,18.7
			c0,22.5-22.8,24.7-22.8,24.7s6.3,3.7,6.3,15.5c0,10.4-12.1,17.7-22.5,17.7c-3.4,0-10.4-0.3-16.5-3.7c-3.7-2-10.6-7.4-10.6-7.4
			c-1.7,4.7-5.2,11.2-6,12.2c3.9,2.9,4.3,3.6,9.8,6.6c11.8,6.4,20,6.6,23.3,6.6c8,0,16.1-2.8,22.5-7.6c3.6-2.7,5.7-5.5,7.8-9.1
			c1.2-2,2.6-4.9,3.2-7.1c0.7-2.4,1.7-7.2,1.7-9.7c0-6.7-1-8.6-0.8-8.7c5.1-3.3,9-6.7,12.2-11.8c3.9-6.1,5.8-12.8,5.8-20.9
			C-4052.1,1520.4-4054.6,1514.7-4057.9,1509z"/>
		<path class="st0" d="M-4141,1575.5c0,0-1.1,2.9-1.3,3.5l-13.4-4.1c0,0,1-1.6,1.4-2.6L-4141,1575.5z"/>
		<g>
			<path class="st3" d="M-3701.4,1515.8c4.8-3.8,7.9-9.7,7.9-16.4c0-11.5-9.3-20.8-20.9-20.8c-0.4,0-38.8,0-38.8,0v75.4h38.3
				c11.9,0,21.5-9.6,21.5-21.5C-3693.4,1525.8-3696.5,1519.7-3701.4,1515.8z M-3716,1542.3h-25.4v-22.1c0,0,25.2,0,25.4,0
				c6.1,0,11,5,11,11.1C-3705,1537.4-3709.9,1542.3-3716,1542.3z M-3714.1,1508.5h-27.4v-18.1h27.4c0,0,0,0,0,0c5,0,9.1,4.1,9.1,9.1
				S-3709.1,1508.5-3714.1,1508.5z M-3502.8,1482.1c0-2.5-1.5-3.6-4.5-3.6h-4.9v12.8h1.9v-5.6h2.2l3.4,5.6h2.2l-3.6-5.6
				C-3504.3,1485.4-3502.8,1484.4-3502.8,1482.1z M-3510.3,1484.1v-4h2.6c1.4,0,2.8,0.3,2.8,1.9c0,2-1.5,2.1-3.1,2.1H-3510.3z
				 M-3516.6,1504.5c-2.7-2.7-5.8-4.8-9.3-6.3c-3.5-1.5-7.3-2.3-11.2-2.3h-25.2v58h11.7v-46.3h13.5c2.3,0,4.5,0.5,6.6,1.4
				c2.1,0.9,4,2.1,5.5,3.7c1.6,1.5,2.8,3.4,3.7,5.5c0.9,2.1,1.4,4.4,1.4,6.8v29h11.7v-29c0-4-0.8-7.7-2.3-11.2
				C-3511.8,1510.3-3513.9,1507.2-3516.6,1504.5z M-3508,1473.8c-6.1,0-11.3,4.7-11.3,11.1c0,6.4,5.2,11.1,11.3,11.1
				c6.1,0,11.2-4.7,11.2-11.1C-3496.7,1478.5-3501.9,1473.8-3508,1473.8z M-3508,1494.1c-5.1,0-9.1-3.9-9.1-9.3c0-5.3,4-9.2,9.1-9.2
				c5,0,9,4,9,9.2C-3499,1490.2-3502.9,1494.1-3508,1494.1z M-3582.2,1554.1h11.2v-38.5h-11.2V1554.1z M-3650.3,1497.6
				c-2.9-1.1-6-1.6-9.2-1.6c-4,0-7.7,0.8-11.2,2.3c-3.5,1.5-6.5,3.6-9.1,6.3c-2.6,2.6-4.7,5.7-6.2,9.2c-1.5,3.5-2.3,7.3-2.3,11.2v29
				h11.7v-29c0-2.3,0.5-4.5,1.4-6.6c0.9-2.1,2.1-4,3.7-5.5c1.6-1.6,3.4-2.8,5.4-3.7c2.1-0.9,4.3-1.4,6.6-1.4c1.6,0,3.2,0.2,4.7,0.7
				c1.5,0.5,3,1.1,4.4,1.9l8.3-8.5C-3644.7,1500.1-3647.5,1498.7-3650.3,1497.6z M-3597.5,1504.5c-2.7-2.7-5.8-4.8-9.3-6.3
				c-3.5-1.5-7.3-2.3-11.2-2.3c-4,0-7.8,0.8-11.3,2.3c-3.5,1.5-6.6,3.6-9.2,6.3c-2.7,2.7-4.8,5.8-6.3,9.3c-1.5,3.5-2.3,7.3-2.3,11.2
				c0,4,0.8,7.8,2.3,11.3c1.5,3.5,3.6,6.6,6.3,9.2c2.7,2.7,5.7,4.8,9.2,6.3c3.5,1.5,7.2,2.3,11.3,2.3h29v-29c0-4-0.8-7.7-2.3-11.2
				C-3592.8,1510.3-3594.9,1507.2-3597.5,1504.5z M-3600.7,1542.3h-17.3c-2.4,0-4.7-0.5-6.8-1.4c-2.1-0.9-3.9-2.1-5.5-3.7
				c-1.5-1.5-2.8-3.4-3.7-5.5c-0.9-2.1-1.4-4.4-1.4-6.8c0-2.4,0.5-4.7,1.4-6.8c0.9-2.1,2.1-3.9,3.7-5.5c1.5-1.5,3.4-2.8,5.5-3.7
				c2.1-0.9,4.4-1.4,6.8-1.4s4.7,0.5,6.8,1.4c2.1,0.9,3.9,2.1,5.5,3.7c1.5,1.5,2.8,3.4,3.7,5.5c0.9,2.1,1.4,4.4,1.4,6.8V1542.3z"/>
		</g>
		<g>
			<path class="st4" d="M-3974.7,1504.8c-2.6-2.8-5.6-4.9-9.2-6.5c-3.5-1.6-7.4-2.4-11.6-2.4c-4,0-7.8,0.8-11.3,2.3
				c-3.5,1.5-6.6,3.6-9.2,6.3c-2.7,2.7-4.8,5.8-6.3,9.3c-1.5,3.5-2.3,7.3-2.3,11.2c0,4,0.8,7.8,2.3,11.3c1.5,3.5,3.6,6.6,6.3,9.2
				c2.7,2.7,5.7,4.8,9.2,6.3c3.5,1.5,7.2,2.3,11.3,2.3h16.1v-11.7h-16.1c-2.4,0-4.7-0.5-6.8-1.4c-2.1-0.9-3.9-2.1-5.5-3.7
				c-1.5-1.5-2.8-3.4-3.7-5.5c-0.9-2.1-1.4-4.4-1.4-6.8c0-2.4,0.5-4.7,1.4-6.8c0.9-2.1,2.1-3.9,3.7-5.5c1.5-1.5,3.4-2.8,5.5-3.7
				c2.1-0.9,4.4-1.4,6.8-1.4c2.6,0,4.9,0.5,7,1.5c2.1,1,3.9,2.3,5.5,4.1c1.6,1.7,2.7,3.7,3.5,5.9c0,0.1,0.1,0.2,0.1,0.4h-20.5v11.7
				h32.7c0,0,0.6-1.4,0.6-6.6c0-5.1-1.4-8.9-2.1-10.5C-3970,1510.4-3972.1,1507.6-3974.7,1504.8z M-3804.8,1504.4
				c-2.7-2.7-5.8-4.8-9.3-6.3c-3.5-1.5-7.3-2.3-11.2-2.3h-25.2v58h11.7v-46.3h13.5c2.3,0,4.5,0.5,6.6,1.4c2.1,0.9,4,2.1,5.5,3.7
				c1.6,1.5,2.8,3.4,3.7,5.5c0.9,2.1,1.4,4.4,1.4,6.8v29h11.7v-29c0-4-0.8-7.7-2.3-11.2C-3800.1,1510.2-3802.1,1507.1-3804.8,1504.4
				z M-3909.8,1497.5h-13.2l-17.5,32.7l-17.5-32.7h-13.2l30.7,58l0-0.1l0,0.1L-3909.8,1497.5z M-3864.1,1504.8
				c-2.6-2.8-5.6-4.9-9.2-6.5c-3.5-1.6-7.4-2.4-11.6-2.4c-4,0-7.8,0.8-11.3,2.3c-3.5,1.5-6.6,3.6-9.2,6.3c-2.7,2.7-4.8,5.8-6.3,9.3
				c-1.5,3.5-2.3,7.3-2.3,11.2c0,4,0.8,7.8,2.3,11.3c1.5,3.5,3.6,6.6,6.3,9.2c2.7,2.7,5.7,4.8,9.2,6.3c3.5,1.5,7.2,2.3,11.3,2.3
				h16.1v-11.7h-16.1c-2.4,0-4.7-0.5-6.8-1.4c-2.1-0.9-3.9-2.1-5.5-3.7c-1.5-1.5-2.8-3.4-3.7-5.5c-0.9-2.1-1.4-4.4-1.4-6.8
				c0-2.4,0.5-4.7,1.4-6.8c0.9-2.1,2.1-3.9,3.7-5.5c1.5-1.5,3.4-2.8,5.5-3.7c2.1-0.9,4.4-1.4,6.8-1.4c2.6,0,4.9,0.5,7,1.5
				c2.1,1,3.9,2.3,5.5,4.1c1.5,1.7,2.7,3.7,3.5,5.9c0,0.1,0.1,0.2,0.1,0.4h-20.5v11.7h32.7c0,0,0.6-1.4,0.6-6.6
				c0-5.1-1.4-8.9-2.1-10.5C-3859.5,1510.4-3861.5,1507.6-3864.1,1504.8z M-3779.8,1486.2h-11.5v38.7c0,4.1,0.8,8,2.4,11.5
				c1.6,3.6,3.7,6.6,6.4,9.2c2.7,2.6,5.8,4.6,9.4,6.1c3.6,1.5,7.4,2.2,11.4,2.2v-11.7c-2.4,0-4.7-0.4-6.9-1.3
				c-2.2-0.9-4.1-2.1-5.7-3.6c-1.6-1.5-2.9-3.4-3.9-5.5c-0.9-2.1-1.4-4.4-1.4-6.9v-17.5h19.6v-11.5h-19.8V1486.2z M-3582.2,1506.5
				h11.5v-10.6h-11.5V1506.5z"/>
		</g>
	</g>
	<g>
		<path class="st0" d="M152.4,1608.2c-12.8,0-28.9-12-28.9-24.9c0-13.5,7.9-18.5,7.9-18.5s-29.3-0.4-29.3-31.9
			c0-10.2,6.9-18.9,13.3-23.8c3.9-3,9.6-4.6,15.5-5.4h25v-11.2l-17-0.4c-7.2-0.8-9.7-2.4-12.9-6.2c-1.3-1.3-5.1-5.9-5.1-13.1
			c0-11.9,8.2-20.3,20.9-20.3c0.2,0,0.5,0,0.7,0c-0.5-1.9-0.7-3.8-0.7-5.8c0-13.5,10.9-24.4,24.4-24.4c7.7,0,14.7,4.1,19.5,10.2
			c1-4.1,4.8-13.9,7-16.5c0,0-5.4-3.9-10.8-6.5c-4.9-2.4-10.3-3.2-15.8-3.2c-5.5,0-10.7,1.1-15.7,3.2c-4.8,2-9.1,5-12.8,8.7
			c-3.7,3.7-6.6,8-8.7,12.9c-1.2,2.8-2,5.7-2.6,8.6c-4.6,2-9.2,4.5-12.7,8c-3.6,3.6-6.5,7.5-8.5,12.1c-2,4.8-2.8,8.5-2.8,13.8
			c0,5.5,1.2,12.2,5.9,19.4c-6.1,3.8-11.2,8.1-14.8,14c-4.2,7.1-7.1,14.4-7.1,23.8c0,10,2.2,19,7.2,26.3c4.2,6.2,8.7,10.1,15,14.1
			c0.2,0.1-1,6.1-0.6,12.2c0.2,3,0.8,6.3,1.7,9.2c0.8,2.7,1.8,5.5,3.3,8c2.6,4.4,5.5,8.5,9.7,12.1c7.6,6.5,18.9,10.7,32,10.7
			c14.2,0,26.8-6.6,31.7-10c5.2-3.6,13-8.2,18.3-22.4c-5.9-0.6-11.6-1.9-16.7-4C180,1601.2,164.3,1608.2,152.4,1608.2z"/>
		<linearGradient id="SVGID_4_" gradientUnits="userSpaceOnUse" x1="199.5311" y1="1550.3529" x2="199.5311" y2="1448.4871">
			<stop  offset="0" style="stop-color:#66267B"/>
			<stop  offset="1" style="stop-color:#00A29C"/>
		</linearGradient>
		<path class="st7" d="M193,1451.5c0,29.5-0.3,116.3-0.3,116.3c0,7.5-1.8,13.9-4.8,19.3c5.1,2.1,10.8,3.4,16.7,4
			c3.3-8.9,5.6-21.4,5.6-39.9c0-26.1,0.2-104.1,0.2-104.1c0-2.1,0.3-4.3,1-6.3c-5.1-0.9-10.4-2.5-15.6-3.2
			C194.2,1441.9,193,1446.8,193,1451.5z"/>
		<path class="st2" d="M307.4,1507.4c-3.5-6-9-10.6-15.1-14.4c3-4.8,5.5-11.7,5.5-17.2c0-5.3-0.4-10.4-2.5-15.3
			c-2-4.7-4.8-8.9-8.4-12.4c-3.6-3.5-7.5-5.5-12.1-7.5c-0.5-3-1.6-6.6-2.7-9.4c-2-4.8-5-9.1-8.7-12.9c-3.7-3.7-8-6.6-12.8-8.7
			c-5-2.1-10.3-3.2-15.8-3.2c-10.9,0-20.5,4-27.7,11.5c-2.3,2.4-4.4,5.2-6.1,8.3c-0.1-0.2-3,4.8-5.3,11.4c5.2,0.7,10.5,2.4,15.6,3.2
			c2.9-10,12.4-18.3,23.6-18.3c13.5,0,24.4,10.9,24.4,24.4c0,2-0.2,3.9-0.7,5.8c0.2,0,0.5,0,0.7,0c12.8,0,21,8.3,21,19.3
			c0,7.1-3.4,10.7-4.7,12.9c-4.4,5.2-11.9,7.2-18.4,7.8l-12.3-0.1v11.2l24.6,0.3c7.3,0,13.2,3,18.7,7.3c5.5,4.3,10.2,12.9,10.2,23.1
			c0,27.7-28.1,30.4-28.1,30.4s7.7,4.6,7.7,19c0,12.8-15,21.8-27.7,21.8c-4.2,0-12.8-0.4-20.3-4.5c-4.5-2.5-13.1-9.1-13.1-9.1
			c-2.1,5.8-6.5,13.8-7.4,15c4.8,3.5,5.3,4.4,12.1,8.1c14.5,7.9,24.6,8.1,28.6,8.1c9.8,0,19.8-3.5,27.7-9.4
			c4.4-3.3,7.1-6.8,9.6-11.3c1.5-2.5,3.2-6,4-8.7c0.8-2.9,2.1-8.9,2.1-12c0-8.3-1.3-10.5-1-10.7c6.3-4.1,11-8.3,15-14.5
			c4.8-7.5,7.1-15.8,7.1-25.8C314.6,1521.5,311.6,1514.5,307.4,1507.4z"/>
		<path class="st0" d="M205.2,1589.3c0,0-1.3,3.6-1.7,4.4l-16.5-5.1c0,0,1.2-2,1.7-3.2L205.2,1589.3z"/>
		<g>
			<path class="st3" d="M424.8,1560.7c5.4-4.3,8.8-10.8,8.8-18.2c0-12.8-10.4-23.2-23.3-23.2c-0.5,0-43.3,0-43.3,0v84.1h42.7
				c13.3,0,24-10.7,24-24C433.7,1571.9,430.2,1565.1,424.8,1560.7z M408.4,1590.3h-28.3v-24.7c0,0,28.1,0,28.3,0
				c6.8,0,12.3,5.6,12.3,12.4C420.7,1584.8,415.2,1590.3,408.4,1590.3z M410.6,1552.6h-30.5v-20.2h30.5h0c5.6,0,10.1,4.5,10.1,10.1
				C420.7,1548.1,416.2,1552.6,410.6,1552.6z M646.1,1523.2c0-2.8-1.7-4.1-5-4.1h-5.4v14.3h2.2v-6.2h2.5l3.8,6.2h2.4l-4.1-6.3
				C644.5,1526.9,646.1,1525.7,646.1,1523.2z M637.8,1525.4v-4.4h2.9c1.5,0,3.1,0.3,3.1,2.1c0,2.2-1.6,2.3-3.5,2.3H637.8z
				 M630.8,1548.2c-3-3-6.4-5.3-10.4-7c-3.9-1.7-8.1-2.5-12.5-2.5h-28.1v64.7h13.1v-51.6h15c2.6,0,5.1,0.5,7.4,1.5
				c2.3,1,4.4,2.4,6.2,4.1c1.8,1.7,3.2,3.8,4.2,6.1c1,2.4,1.5,4.9,1.5,7.6v32.4h13.1V1571c0-4.4-0.8-8.6-2.5-12.5
				C636.1,1554.6,633.8,1551.2,630.8,1548.2z M640.4,1513.9c-6.8,0-12.6,5.2-12.6,12.4c0,7.2,5.8,12.4,12.6,12.4
				c6.8,0,12.5-5.2,12.5-12.4C652.9,1519.1,647.2,1513.9,640.4,1513.9z M640.4,1536.6c-5.7,0-10.1-4.4-10.1-10.4
				c0-5.9,4.4-10.3,10.1-10.3c5.6,0,10,4.4,10,10.3C650.5,1532.2,646,1536.6,640.4,1536.6z M557.7,1603.4h12.5v-42.9h-12.5V1603.4z
				 M481.7,1540.5c-3.2-1.2-6.6-1.8-10.3-1.8c-4.4,0-8.6,0.9-12.4,2.6c-3.9,1.7-7.3,4.1-10.2,7c-2.9,2.9-5.2,6.4-6.9,10.3
				c-1.7,3.9-2.5,8.1-2.5,12.5v32.4h13.1V1571c0-2.6,0.5-5.1,1.5-7.4c1-2.3,2.4-4.4,4.1-6.2c1.7-1.8,3.7-3.2,6-4.2
				c2.3-1,4.7-1.5,7.3-1.5c1.8,0,3.6,0.3,5.2,0.8c1.7,0.5,3.3,1.2,5,2.1l9.2-9.5C487.9,1543.2,484.9,1541.7,481.7,1540.5z
				 M540.6,1548.2c-3-3-6.4-5.3-10.4-7c-3.9-1.7-8.1-2.5-12.5-2.5c-4.5,0-8.7,0.8-12.6,2.5c-3.9,1.7-7.3,4-10.3,7
				c-3,3-5.3,6.4-7,10.4c-1.7,3.9-2.5,8.1-2.5,12.5c0,4.5,0.8,8.7,2.5,12.6c1.7,3.9,4,7.3,7,10.3c3,3,6.4,5.3,10.3,7
				c3.9,1.7,8.1,2.5,12.6,2.5h32.4V1571c0-4.4-0.8-8.6-2.5-12.5C545.9,1554.6,543.5,1551.2,540.6,1548.2z M537,1590.3h-19.3
				c-2.7,0-5.2-0.5-7.6-1.5c-2.3-1-4.4-2.4-6.1-4.1c-1.7-1.7-3.1-3.8-4.1-6.1c-1-2.3-1.5-4.9-1.5-7.5c0-2.7,0.5-5.2,1.5-7.6
				c1-2.3,2.4-4.4,4.1-6.1c1.7-1.7,3.8-3.1,6.1-4.1c2.4-1,4.9-1.5,7.6-1.5c2.7,0,5.2,0.5,7.5,1.5c2.4,1,4.4,2.4,6.1,4.1
				c1.7,1.7,3.1,3.8,4.1,6.1c1,2.4,1.5,4.9,1.5,7.6V1590.3z"/>
		</g>
		<g>
			<path class="st4" d="M557.7,1550.5h12.8v-11.8h-12.8V1550.5z"/>
			<path class="st4" d="M410.9,1447.5c-2.9-3.1-6.3-5.5-10.3-7.3c-4-1.8-8.3-2.7-13-2.7c-4.5,0-8.8,0.8-12.7,2.5
				c-3.9,1.7-7.4,4-10.3,7c-3,3-5.3,6.5-7,10.4c-1.7,4-2.5,8.2-2.5,12.6c0,4.5,0.8,8.8,2.5,12.7c1.7,3.9,4,7.4,7,10.3
				c3,3,6.4,5.3,10.3,7c3.9,1.7,8.1,2.5,12.7,2.5h18.1v-13.2h-18.1c-2.7,0-5.2-0.5-7.6-1.5c-2.4-1-4.4-2.4-6.1-4.1
				c-1.7-1.7-3.1-3.8-4.1-6.2c-1-2.4-1.5-4.9-1.5-7.6c0-2.7,0.5-5.2,1.5-7.6c1-2.4,2.4-4.4,4.1-6.1c1.7-1.7,3.8-3.1,6.1-4.1
				c2.4-1,4.9-1.5,7.6-1.5c2.9,0,5.5,0.6,7.9,1.7c2.4,1.1,4.4,2.6,6.1,4.6c1.7,1.9,3.1,4.1,4,6.7c0.1,0.1,0.1,0.3,0.1,0.4h-23.1
				v13.2h36.7c0,0,0.7-1.5,0.7-7.4c0-5.7-1.6-10-2.4-11.8C416.1,1453.8,413.8,1450.6,410.9,1447.5z M601.4,1447c-3-3-6.5-5.3-10.4-7
				c-4-1.7-8.1-2.5-12.6-2.5h-28.3v65.1h13.2v-51.9h15.1c2.6,0,5.1,0.5,7.5,1.5c2.4,1,4.4,2.4,6.2,4.1c1.8,1.7,3.2,3.8,4.2,6.1
				c1,2.4,1.5,4.9,1.5,7.6v32.6H611V1470c0-4.4-0.8-8.6-2.5-12.6C606.7,1453.5,604.4,1450,601.4,1447z M483.6,1439.2h-14.8
				l-19.7,36.6l-19.7-36.6h-14.8l34.4,65.1l0-0.1l0,0.1L483.6,1439.2z M534.9,1447.5c-2.9-3.1-6.3-5.5-10.3-7.3
				c-4-1.8-8.3-2.7-13-2.7c-4.5,0-8.8,0.8-12.7,2.5c-3.9,1.7-7.4,4-10.3,7c-3,3-5.3,6.5-7,10.4c-1.7,4-2.5,8.2-2.5,12.6
				c0,4.5,0.8,8.8,2.5,12.7c1.7,3.9,4,7.4,7,10.3c3,3,6.4,5.3,10.3,7c3.9,1.7,8.1,2.5,12.7,2.5h18.1v-13.2h-18.1
				c-2.7,0-5.2-0.5-7.6-1.5c-2.4-1-4.4-2.4-6.1-4.1c-1.7-1.7-3.1-3.8-4.1-6.2c-1-2.4-1.5-4.9-1.5-7.6c0-2.7,0.5-5.2,1.5-7.6
				c1-2.4,2.4-4.4,4.1-6.1c1.7-1.7,3.8-3.1,6.1-4.1c2.4-1,4.9-1.5,7.6-1.5c2.9,0,5.5,0.6,7.9,1.7c2.4,1.1,4.4,2.6,6.2,4.6
				c1.7,1.9,3.1,4.1,4,6.7c0.1,0.1,0.1,0.3,0.1,0.4h-23v13.2h36.7c0,0,0.7-1.5,0.7-7.4c0-5.7-1.6-10-2.4-11.8
				C540.1,1453.8,537.8,1450.6,534.9,1447.5z M629.5,1426.6h-12.9v43.4c0,4.6,0.9,8.9,2.7,12.9c1.8,4,4.2,7.5,7.2,10.3
				c3,2.9,6.6,5.2,10.6,6.8c4,1.6,8.3,2.5,12.8,2.5v-13.2c-2.7,0-5.3-0.5-7.7-1.4c-2.5-1-4.6-2.3-6.4-4c-1.8-1.7-3.3-3.8-4.3-6.2
				c-1.1-2.4-1.6-5-1.6-7.8v-19.6h21.9v-12.9h-22.2V1426.6z"/>
		</g>
	</g>
	<g>
		<path class="st0" d="M109.2,270.3c-12.8,0-28.9-12-28.9-24.9c0-13.5,7.9-18.5,7.9-18.5s-29.3-0.4-29.3-31.9
			c0-10.2,6.9-18.9,13.3-23.8c3.9-3,9.6-4.6,15.5-5.4h25v-11.2l-17-0.4c-7.2-0.8-9.7-2.4-12.9-6.2c-1.3-1.3-5.1-5.9-5.1-13.1
			c0-11.9,8.2-20.3,20.9-20.3c0.2,0,0.5,0,0.7,0c-0.5-1.9-0.7-3.8-0.7-5.8c0-13.5,10.9-24.4,24.4-24.4c7.7,0,14.7,4.1,19.5,10.2
			c1-4.1,4.8-13.9,7-16.5c0,0-5.4-3.9-10.8-6.5c-4.9-2.4-10.3-3.2-15.8-3.2c-5.5,0-10.7,1.1-15.7,3.2c-4.8,2-9.1,5-12.8,8.7
			c-3.7,3.7-6.6,8-8.7,12.9c-1.2,2.8-2,5.7-2.6,8.6c-4.6,2-9.2,4.5-12.7,8c-3.6,3.6-6.5,7.5-8.5,12.1c-2,4.8-2.8,8.5-2.8,13.8
			c0,5.5,1.2,12.2,5.9,19.4c-6.1,3.8-11.2,8.1-14.8,14c-4.2,7.1-7.1,14.4-7.1,23.8c0,10,2.2,19,7.2,26.3c4.2,6.2,8.7,10.1,15,14.1
			c0.2,0.1-1,6.1-0.6,12.2c0.2,3,0.8,6.3,1.7,9.2c0.8,2.7,1.8,5.5,3.3,8c2.6,4.4,5.5,8.5,9.7,12.1c7.6,6.5,18.9,10.7,32,10.7
			c14.2,0,26.8-6.6,31.7-10c5.2-3.6,13-8.2,18.3-22.4c-5.9-0.6-11.6-1.9-16.7-4C136.9,263.3,121.1,270.3,109.2,270.3z"/>
		<linearGradient id="SVGID_5_" gradientUnits="userSpaceOnUse" x1="156.341" y1="212.4384" x2="156.341" y2="110.5725">
			<stop  offset="0" style="stop-color:#66267B"/>
			<stop  offset="1" style="stop-color:#00A29C"/>
		</linearGradient>
		<path class="st8" d="M149.8,113.6c0,29.5-0.3,116.3-0.3,116.3c0,7.5-1.8,13.9-4.8,19.3c5.1,2.1,10.8,3.4,16.7,4
			c3.3-8.9,5.6-21.4,5.6-39.9c0-26.1,0.2-104.1,0.2-104.1c0-2.1,0.3-4.3,1-6.3c-5.1-0.9-10.4-2.5-15.6-3.2
			C151,104,149.8,108.9,149.8,113.6z"/>
		<path class="st2" d="M264.2,169.5c-3.5-6-9-10.6-15.1-14.4c3-4.8,5.5-11.7,5.5-17.2c0-5.3-0.4-10.4-2.5-15.3
			c-2-4.7-4.8-8.9-8.4-12.4c-3.6-3.5-7.5-5.5-12.1-7.5c-0.5-3-1.6-6.6-2.7-9.4c-2-4.8-5-9.1-8.7-12.9c-3.7-3.7-8-6.6-12.8-8.7
			c-5-2.1-10.3-3.2-15.8-3.2c-10.9,0-20.5,4-27.7,11.5c-2.3,2.4-4.4,5.2-6.1,8.3c-0.1-0.2-3,4.8-5.3,11.4c5.2,0.7,10.5,2.4,15.6,3.2
			c2.9-10,12.4-18.3,23.6-18.3c13.5,0,24.4,10.9,24.4,24.4c0,2-0.2,3.9-0.7,5.8c0.2,0,0.5,0,0.7,0c12.8,0,21,8.3,21,19.3
			c0,7.1-3.4,10.7-4.7,12.9c-4.4,5.2-11.9,7.2-18.4,7.8l-12.3-0.1v11.2l24.6,0.3c7.3,0,13.2,3,18.7,7.3c5.5,4.3,10.2,12.9,10.2,23.1
			c0,27.7-28.1,30.4-28.1,30.4s7.7,4.6,7.7,19c0,12.8-15,21.8-27.7,21.8c-4.2,0-12.8-0.4-20.3-4.5c-4.5-2.5-13.1-9.1-13.1-9.1
			c-2.1,5.8-6.5,13.8-7.4,15c4.8,3.5,5.3,4.4,12.1,8.1c14.5,7.9,24.6,8.1,28.6,8.1c9.8,0,19.8-3.5,27.7-9.4
			c4.4-3.3,7.1-6.8,9.6-11.3c1.5-2.5,3.2-6,4-8.7c0.8-2.9,2.1-8.9,2.1-12c0-8.3-1.3-10.5-1-10.7c6.3-4.1,11-8.3,15-14.5
			c4.8-7.5,7.1-15.8,7.1-25.8C271.4,183.6,268.4,176.6,264.2,169.5z"/>
		<path class="st0" d="M162,251.4c0,0-1.3,3.6-1.7,4.4l-16.5-5.1c0,0,1.2-2,1.7-3.2L162,251.4z"/>
		<g>
			<path class="st3" d="M381.6,222.8c5.4-4.3,8.8-10.8,8.8-18.2c0-12.8-10.4-23.2-23.3-23.2c-0.5,0-43.3,0-43.3,0v84.1h42.7
				c13.3,0,24-10.7,24-24C390.5,234,387,227.2,381.6,222.8z M365.2,252.4h-28.3v-24.7c0,0,28.1,0,28.3,0c6.8,0,12.3,5.6,12.3,12.4
				C377.5,246.9,372,252.4,365.2,252.4z M367.4,214.7h-30.5v-20.2h30.5h0c5.6,0,10.1,4.5,10.1,10.1
				C377.5,210.1,373,214.7,367.4,214.7z M602.9,185.3c0-2.8-1.7-4.1-5-4.1h-5.4v14.3h2.2v-6.2h2.5l3.8,6.2h2.4l-4.1-6.3
				C601.3,188.9,602.9,187.8,602.9,185.3z M594.6,187.5V183h2.9c1.5,0,3.1,0.3,3.1,2.1c0,2.2-1.6,2.3-3.5,2.3H594.6z M587.6,210.3
				c-3-3-6.4-5.3-10.4-7c-3.9-1.7-8.1-2.5-12.5-2.5h-28.1v64.7h13.1v-51.6h15c2.6,0,5.1,0.5,7.4,1.5c2.3,1,4.4,2.4,6.2,4.1
				c1.8,1.7,3.2,3.8,4.2,6.1c1,2.4,1.5,4.9,1.5,7.6v32.4h13.1v-32.4c0-4.4-0.8-8.6-2.5-12.5C592.9,216.7,590.6,213.2,587.6,210.3z
				 M597.2,176c-6.8,0-12.6,5.2-12.6,12.4c0,7.2,5.8,12.4,12.6,12.4c6.8,0,12.5-5.2,12.5-12.4C609.8,181.2,604,176,597.2,176z
				 M597.2,198.7c-5.7,0-10.1-4.4-10.1-10.4c0-5.9,4.4-10.3,10.1-10.3c5.6,0,10,4.4,10,10.3C607.3,194.3,602.8,198.7,597.2,198.7z
				 M514.5,265.5H527v-42.9h-12.5V265.5z M438.5,202.6c-3.2-1.2-6.6-1.8-10.3-1.8c-4.4,0-8.6,0.9-12.4,2.6c-3.9,1.7-7.3,4.1-10.2,7
				c-2.9,2.9-5.2,6.4-6.9,10.3c-1.7,3.9-2.5,8.1-2.5,12.5v32.4h13.1v-32.4c0-2.6,0.5-5.1,1.5-7.4c1-2.3,2.4-4.4,4.1-6.2
				c1.7-1.8,3.7-3.2,6-4.2c2.3-1,4.7-1.5,7.3-1.5c1.8,0,3.6,0.3,5.2,0.8c1.7,0.5,3.3,1.2,5,2.1l9.2-9.5
				C444.7,205.3,441.7,203.8,438.5,202.6z M497.4,210.3c-3-3-6.4-5.3-10.4-7c-3.9-1.7-8.1-2.5-12.5-2.5c-4.5,0-8.7,0.8-12.6,2.5
				c-3.9,1.7-7.3,4-10.3,7c-3,3-5.3,6.4-7,10.4c-1.7,3.9-2.5,8.1-2.5,12.5c0,4.5,0.8,8.7,2.5,12.6c1.7,3.9,4,7.3,7,10.3
				c3,3,6.4,5.3,10.3,7c3.9,1.7,8.1,2.5,12.6,2.5h32.4v-32.4c0-4.4-0.8-8.6-2.5-12.5C502.7,216.7,500.3,213.2,497.4,210.3z
				 M493.8,252.4h-19.3c-2.7,0-5.2-0.5-7.6-1.5c-2.3-1-4.4-2.4-6.1-4.1c-1.7-1.7-3.1-3.8-4.1-6.1c-1-2.3-1.5-4.9-1.5-7.5
				c0-2.7,0.5-5.2,1.5-7.6c1-2.3,2.4-4.4,4.1-6.1c1.7-1.7,3.8-3.1,6.1-4.1c2.4-1,4.9-1.5,7.6-1.5c2.7,0,5.2,0.5,7.5,1.5
				c2.4,1,4.4,2.4,6.1,4.1c1.7,1.7,3.1,3.8,4.1,6.1c1,2.4,1.5,4.9,1.5,7.6V252.4z"/>
		</g>
		<g>
			<path class="st4" d="M514.5,212.6h12.8v-11.8h-12.8V212.6z"/>
			<path class="st4" d="M367.7,109.6c-2.9-3.1-6.3-5.5-10.3-7.3c-4-1.8-8.3-2.7-13-2.7c-4.5,0-8.8,0.8-12.7,2.5
				c-3.9,1.7-7.4,4-10.3,7c-3,3-5.3,6.5-7,10.4c-1.7,4-2.5,8.2-2.5,12.6c0,4.5,0.8,8.8,2.5,12.7c1.7,3.9,4,7.4,7,10.3
				c3,3,6.4,5.3,10.3,7c3.9,1.7,8.1,2.5,12.7,2.5h18.1v-13.2h-18.1c-2.7,0-5.2-0.5-7.6-1.5c-2.4-1-4.4-2.4-6.1-4.1
				c-1.7-1.7-3.1-3.8-4.1-6.2c-1-2.4-1.5-4.9-1.5-7.6c0-2.7,0.5-5.2,1.5-7.6c1-2.4,2.4-4.4,4.1-6.1c1.7-1.7,3.8-3.1,6.1-4.1
				c2.4-1,4.9-1.5,7.6-1.5c2.9,0,5.5,0.6,7.9,1.7c2.4,1.1,4.4,2.6,6.1,4.6c1.7,1.9,3.1,4.1,4,6.7c0.1,0.1,0.1,0.3,0.1,0.4h-23.1
				v13.2h36.7c0,0,0.7-1.5,0.7-7.4c0-5.7-1.6-10-2.4-11.8C372.9,115.9,370.6,112.6,367.7,109.6z M558.2,109.1c-3-3-6.5-5.3-10.4-7
				c-4-1.7-8.1-2.5-12.6-2.5H507v65.1h13.2v-51.9h15.1c2.6,0,5.1,0.5,7.5,1.5c2.4,1,4.4,2.4,6.2,4.1c1.8,1.7,3.2,3.8,4.2,6.1
				c1,2.4,1.5,4.9,1.5,7.6v32.6h13.2v-32.6c0-4.4-0.8-8.6-2.5-12.6C563.6,115.6,561.2,112.1,558.2,109.1z M440.4,101.3h-14.8
				L406,138l-19.7-36.6h-14.8l34.4,65.1l0-0.1l0,0.1L440.4,101.3z M491.7,109.6c-2.9-3.1-6.3-5.5-10.3-7.3c-4-1.8-8.3-2.7-13-2.7
				c-4.5,0-8.8,0.8-12.7,2.5c-3.9,1.7-7.4,4-10.3,7c-3,3-5.3,6.5-7,10.4c-1.7,4-2.5,8.2-2.5,12.6c0,4.5,0.8,8.8,2.5,12.7
				c1.7,3.9,4,7.4,7,10.3c3,3,6.4,5.3,10.3,7c3.9,1.7,8.1,2.5,12.7,2.5h18.1v-13.2h-18.1c-2.7,0-5.2-0.5-7.6-1.5
				c-2.4-1-4.4-2.4-6.1-4.1c-1.7-1.7-3.1-3.8-4.1-6.2c-1-2.4-1.5-4.9-1.5-7.6c0-2.7,0.5-5.2,1.5-7.6c1-2.4,2.4-4.4,4.1-6.1
				c1.7-1.7,3.8-3.1,6.1-4.1c2.4-1,4.9-1.5,7.6-1.5c2.9,0,5.5,0.6,7.9,1.7c2.4,1.1,4.4,2.6,6.2,4.6c1.7,1.9,3.1,4.1,4,6.7
				c0.1,0.1,0.1,0.3,0.1,0.4h-23v13.2h36.7c0,0,0.7-1.5,0.7-7.4c0-5.7-1.6-10-2.4-11.8C496.9,115.9,494.6,112.6,491.7,109.6z
				 M586.3,88.7h-12.9v43.4c0,4.6,0.9,8.9,2.7,12.9c1.8,4,4.2,7.5,7.2,10.3c3,2.9,6.6,5.2,10.6,6.8c4,1.6,8.3,2.5,12.8,2.5v-13.2
				c-2.7,0-5.3-0.5-7.7-1.4c-2.5-1-4.6-2.3-6.4-4c-1.8-1.7-3.3-3.8-4.3-6.2c-1.1-2.4-1.6-5-1.6-7.8v-19.6h21.9V99.6h-22.2V88.7z"/>
		</g>
	</g>
	<g>
		<path class="st0" d="M2446.2,1299.4c-11.1,0-25.2-10.5-25.2-21.7c0-11.8,6.9-16.1,6.9-16.1s-25.6-0.3-25.6-27.8
			c0-8.9,6-16.5,11.6-20.8c3.4-2.6,8.4-4,13.5-4.7h21.8v-9.8l-14.8-0.4c-6.3-0.7-8.5-2.1-11.3-5.4c-1.1-1.1-4.5-5.2-4.5-11.4
			c0-10.4,7.1-17.7,18.3-17.7c0.2,0,0.4,0,0.6,0c-0.4-1.6-0.6-3.3-0.6-5.1c0-11.8,9.5-21.3,21.3-21.3c6.7,0,12.8,3.6,17,8.9
			c0.9-3.6,4.2-12.1,6.1-14.4c0,0-4.7-3.4-9.4-5.7c-4.3-2.1-9-2.8-13.7-2.8s-9.4,0.9-13.7,2.8c-4.2,1.8-8,4.3-11.2,7.6
			c-3.2,3.2-5.8,7-7.6,11.2c-1,2.4-1.8,5-2.2,7.5c-4,1.7-8,3.9-11.1,7c-3.1,3.1-5.7,6.5-7.4,10.6c-1.8,4.2-2.4,7.4-2.4,12.1
			c0,4.8,1,10.6,5.1,16.9c-5.3,3.3-9.8,7-12.9,12.3c-3.6,6.2-6.2,12.5-6.2,20.7c0,8.7,2,16.6,6.2,22.9c3.7,5.4,7.6,8.8,13.1,12.3
			c0.2,0.1-0.9,5.3-0.5,10.7c0.2,2.7,0.7,5.5,1.4,8c0.7,2.4,1.6,4.8,2.9,7c2.3,3.9,4.8,7.5,8.4,10.6c6.6,5.7,16.5,9.3,27.9,9.3
			c12.4,0,23.4-5.8,27.6-8.8c4.5-3.1,11.3-7.2,15.9-19.6c-5.1-0.5-10.1-1.7-14.5-3.5C2470.4,1293.3,2456.6,1299.4,2446.2,1299.4z"/>
		<linearGradient id="SVGID_6_" gradientUnits="userSpaceOnUse" x1="2487.4109" y1="1248.8925" x2="2487.4109" y2="1159.9962">
			<stop  offset="0" style="stop-color:#66267B"/>
			<stop  offset="1" style="stop-color:#00A29C"/>
		</linearGradient>
		<path class="st9" d="M2481.7,1162.7c0,25.8-0.3,101.5-0.3,101.5c0,6.5-1.6,12.1-4.2,16.8c4.4,1.8,9.4,3,14.5,3.5
			c2.9-7.7,4.9-18.7,4.9-34.8c0-22.8,0.1-90.8,0.1-90.8c0-1.9,0.3-3.7,0.8-5.5c-4.4-0.8-9.1-2.2-13.6-2.8
			C2482.7,1154.2,2481.7,1158.5,2481.7,1162.7z"/>
		<path class="st2" d="M2581.6,1211.4c-3.1-5.2-7.9-9.3-13.2-12.6c2.6-4.1,4.8-10.2,4.8-15c0-4.6-0.4-9.1-2.2-13.3
			c-1.7-4.1-4.2-7.7-7.3-10.9c-3.1-3.1-6.5-4.8-10.5-6.6c-0.5-2.6-1.4-5.8-2.4-8.2c-1.8-4.2-4.3-8-7.6-11.2c-3.2-3.2-7-5.8-11.2-7.6
			c-4.4-1.8-9-2.8-13.8-2.8c-9.5,0-17.9,3.5-24.2,10c-2,2.1-3.8,4.5-5.4,7.3c-0.1-0.2-2.6,4.2-4.6,9.9c4.5,0.6,9.2,2.1,13.6,2.8
			c2.6-8.7,10.8-16,20.6-16c11.8,0,21.3,9.5,21.3,21.3c0,1.7-0.2,3.4-0.6,5.1c0.2,0,0.4,0,0.6,0c11.1,0,18.3,7.2,18.3,16.8
			c0,6.2-2.9,9.3-4.1,11.2c-3.8,4.5-10.4,6.2-16,6.8l-10.7,0v9.8l21.4,0.3c6.4,0,11.5,2.6,16.3,6.4c4.8,3.8,8.9,11.3,8.9,20.1
			c0,24.2-24.5,26.5-24.5,26.5s6.7,4,6.7,16.6c0,11.1-13.1,19-24.2,19c-3.6,0-11.2-0.4-17.7-4c-3.9-2.2-11.4-7.9-11.4-7.9
			c-1.8,5.1-5.6,12.1-6.5,13.1c4.2,3.1,4.6,3.8,10.6,7.1c12.7,6.9,21.5,7.1,25,7.1c8.6,0,17.3-3.1,24.2-8.2c3.9-2.9,6.2-5.9,8.4-9.8
			c1.3-2.2,2.8-5.2,3.5-7.6c0.7-2.6,1.8-7.8,1.8-10.4c0-7.2-1.1-9.2-0.9-9.3c5.5-3.5,9.6-7.2,13.1-12.7c4.2-6.6,6.2-13.8,6.2-22.5
			C2587.8,1223.7,2585.2,1217.6,2581.6,1211.4z"/>
		<path class="st0" d="M2492.3,1282.9c0,0-1.1,3.1-1.5,3.8l-14.4-4.5c0,0,1-1.7,1.5-2.8L2492.3,1282.9z"/>
		<g>
			<path class="st3" d="M2473,1555.8c-4.1-5.2-10.6-8.6-17.8-8.6c-12.5,0-22.6,10.1-22.6,22.6c0,0.5,0,42.2,0,42.2h81.9v-41.5
				c0-12.9-10.4-23.4-23.3-23.4C2483.8,1547.1,2477.2,1550.5,2473,1555.8z M2501.8,1571.7v27.6h-24c0,0,0-27.4,0-27.6
				c0-6.6,5.4-12,12-12C2496.4,1559.8,2501.8,1565.1,2501.8,1571.7z M2465,1569.6v29.7h-19.7v-29.7c0,0,0,0,0,0
				c0-5.4,4.4-9.8,9.8-9.8C2460.6,1559.8,2465,1564.2,2465,1569.6z M2436.4,1340.3c-2.7,0-4,1.6-4,4.9v5.3h13.9v-2.1h-6v-2.4l6-3.7
				v-2.4l-6.1,4C2440,1341.9,2438.9,1340.3,2436.4,1340.3z M2438.5,1348.4h-4.3v-2.9c0-1.5,0.3-3,2-3c2.1,0,2.3,1.6,2.3,3.4V1348.4z
				 M2460.7,1355.2c-2.9,2.9-5.2,6.3-6.8,10.1c-1.6,3.8-2.4,7.9-2.4,12.2v27.4h63v-12.7h-50.3v-14.6c0-2.5,0.5-4.9,1.5-7.2
				c1-2.3,2.3-4.3,4-6c1.7-1.7,3.7-3.1,5.9-4.1c2.3-1,4.7-1.5,7.4-1.5h31.5V1346H2483c-4.3,0-8.4,0.8-12.2,2.5
				C2467,1350.1,2463.6,1352.3,2460.7,1355.2z M2427.3,1345.9c0,6.6,5.1,12.2,12,12.2c7,0,12.1-5.6,12.1-12.2
				c0-6.6-5.1-12.2-12.1-12.2C2432.4,1333.7,2427.3,1339.3,2427.3,1345.9z M2449.4,1345.9c0,5.5-4.3,9.8-10.1,9.8
				c-5.7,0-10-4.3-10-9.8c0-5.5,4.3-9.8,10-9.8C2445.2,1336.1,2449.4,1340.4,2449.4,1345.9z M2514.5,1426.4v-12.2h-41.8v12.2H2514.5
				z M2453.2,1500.4c-1.2,3.1-1.8,6.5-1.8,10c0,4.3,0.8,8.3,2.5,12.1c1.7,3.8,3.9,7.1,6.8,9.9c2.8,2.8,6.2,5.1,10,6.7
				c3.8,1.7,7.9,2.5,12.2,2.5h31.5v-12.7H2483c-2.5,0-4.9-0.5-7.2-1.5c-2.3-1-4.3-2.3-6-4c-1.7-1.7-3.1-3.6-4.1-5.9
				c-1-2.2-1.5-4.6-1.5-7.1c0-1.8,0.3-3.5,0.8-5.1c0.5-1.6,1.2-3.2,2-4.8l-9.2-9C2455.9,1494.3,2454.4,1497.3,2453.2,1500.4z
				 M2460.7,1443.1c-2.9,2.9-5.2,6.3-6.8,10.1c-1.6,3.8-2.4,7.9-2.4,12.2c0,4.4,0.8,8.5,2.4,12.3c1.6,3.8,3.9,7.1,6.8,10
				c2.9,2.9,6.3,5.2,10.1,6.8c3.8,1.6,7.9,2.5,12.2,2.5c4.4,0,8.5-0.8,12.2-2.5c3.8-1.6,7.1-3.9,10-6.8c2.9-2.9,5.2-6.2,6.8-10
				c1.6-3.8,2.5-7.9,2.5-12.3v-31.5H2483c-4.3,0-8.4,0.8-12.2,2.4C2467,1437.9,2463.6,1440.2,2460.7,1443.1z M2501.8,1446.6v18.8
				c0,2.6-0.5,5.1-1.5,7.4c-1,2.3-2.3,4.3-4,5.9c-1.7,1.7-3.7,3-6,4c-2.3,1-4.7,1.5-7.3,1.5c-2.6,0-5.1-0.5-7.4-1.5
				c-2.3-1-4.3-2.3-5.9-4c-1.7-1.7-3-3.7-4-5.9c-1-2.3-1.5-4.7-1.5-7.4c0-2.6,0.5-5.1,1.5-7.3c1-2.3,2.3-4.3,4-6
				c1.7-1.7,3.7-3,5.9-4c2.3-1,4.7-1.5,7.4-1.5H2501.8z"/>
		</g>
		<g>
			<path class="st4" d="M2461.1,1852.5c-3,2.8-5.3,6.1-7.1,9.9c-1.7,3.8-2.6,8-2.6,12.6c0,4.4,0.8,8.5,2.4,12.3
				c1.6,3.8,3.9,7.1,6.8,10c2.9,2.9,6.3,5.2,10.1,6.8c3.8,1.6,7.9,2.5,12.2,2.5c4.4,0,8.5-0.8,12.2-2.5c3.8-1.6,7.1-3.9,10-6.8
				c2.9-2.9,5.2-6.2,6.8-10c1.6-3.8,2.5-7.9,2.5-12.3v-17.5h-12.7v17.5c0,2.6-0.5,5.1-1.5,7.4c-1,2.3-2.3,4.3-4,5.9
				c-1.7,1.7-3.7,3-6,4c-2.3,1-4.7,1.5-7.3,1.5c-2.6,0-5.1-0.5-7.4-1.5c-2.3-1-4.3-2.3-5.9-4c-1.7-1.7-3-3.7-4-5.9
				c-1-2.3-1.5-4.7-1.5-7.4c0-2.8,0.5-5.3,1.6-7.6c1.1-2.3,2.5-4.3,4.4-5.9c1.9-1.7,4-3,6.4-3.9c0.1,0,0.3-0.1,0.4-0.1v22.3h12.7
				v-35.5c0,0-1.5-0.7-7.2-0.7c-5.5,0-9.6,1.6-11.4,2.3C2467.2,1847.4,2464.1,1849.7,2461.1,1852.5z M2460.7,1668.1
				c-2.9,2.9-5.2,6.3-6.8,10.1c-1.6,3.8-2.4,7.9-2.4,12.2v27.4h63V1705h-50.3v-14.6c0-2.5,0.5-4.9,1.5-7.2c1-2.3,2.3-4.3,4-6
				c1.7-1.7,3.7-3.1,5.9-4.1c2.3-1,4.7-1.5,7.4-1.5h31.5v-12.7h-31.5c-4.3,0-8.4,0.8-12.2,2.4
				C2466.9,1662.9,2463.6,1665.2,2460.7,1668.1z M2453.1,1782.1v14.3l35.5,19l-35.5,19v14.3l63-33.3l-0.1,0l0.1,0L2453.1,1782.1z
				 M2461.1,1732.4c-3,2.8-5.3,6.1-7.1,9.9c-1.7,3.8-2.6,8-2.6,12.6c0,4.4,0.8,8.5,2.4,12.3c1.6,3.8,3.9,7.1,6.8,10
				c2.9,2.9,6.3,5.2,10.1,6.8c3.8,1.6,7.9,2.4,12.2,2.4c4.4,0,8.5-0.8,12.2-2.4c3.8-1.6,7.1-3.9,10-6.8c2.9-2.9,5.2-6.2,6.8-10
				c1.6-3.8,2.5-7.9,2.5-12.3v-17.5h-12.7v17.5c0,2.6-0.5,5.1-1.5,7.4c-1,2.3-2.3,4.3-4,5.9c-1.7,1.7-3.7,3-6,4
				c-2.3,1-4.7,1.5-7.3,1.5c-2.6,0-5.1-0.5-7.4-1.5c-2.3-1-4.3-2.3-5.9-4c-1.7-1.7-3-3.7-4-5.9c-1-2.3-1.5-4.7-1.5-7.4
				c0-2.8,0.5-5.3,1.6-7.6c1.1-2.3,2.5-4.3,4.4-6c1.9-1.7,4-3,6.4-3.8c0.1,0,0.3-0.1,0.4-0.1v22.3h12.7v-35.5c0,0-1.5-0.7-7.2-0.7
				c-5.5,0-9.6,1.6-11.4,2.3C2467.2,1727.4,2464.1,1729.6,2461.1,1732.4z M2440.9,1640.9v12.5h42c4.5,0,8.7-0.9,12.5-2.6
				c3.9-1.7,7.2-4.1,10-7c2.8-2.9,5-6.3,6.6-10.2c1.6-3.9,2.4-8,2.4-12.4h-12.7c0,2.6-0.5,5.1-1.4,7.5c-0.9,2.4-2.2,4.5-3.9,6.2
				c-1.7,1.8-3.7,3.2-6,4.2c-2.3,1-4.8,1.5-7.5,1.5h-19v-21.2h-12.5v21.5H2440.9z M2463,1426.4V1414h-11.5v12.5H2463z"/>
		</g>
	</g>
	<path class="st4" d="M-2054.2,819h-124.9c-16.7,0-30.2-13.5-30.2-30.2V664c0-16.7,13.5-30.2,30.2-30.2h124.9
		c16.7,0,30.2,13.5,30.2,30.2v124.9C-2024,805.5-2037.5,819-2054.2,819z"/>
	<path class="st10" d="M-2052.7,724.1c-2.1-3.6-5.4-6.4-9-8.6c1.8-2.8,3.3-7,3.3-10.3c0-3.2-0.3-6.2-1.5-9.1c-1.2-2.8-2.9-5.3-5-7.4
		c-2.1-2.1-4.5-3.3-7.2-4.5c-0.3-1.8-0.9-4-1.6-5.6c-1.2-2.9-3-5.5-5.2-7.7c-2.2-2.2-4.8-4-7.7-5.2c-3-1.3-6.2-1.9-9.4-1.9
		c-6.5,0-12.3,2.4-16.6,6.9c-1.4,1.5-2.6,3.1-3.7,5c-0.1-0.1-1.8,2.9-3.2,6.8c-0.9,2.6-1.6,5.5-1.6,8.3c0,17.6-0.2,69.5-0.2,69.5
		c0,4.5-1.1,8.3-2.9,11.5c-4.7,8.4-14.1,12.6-21.2,12.6c-7.6,0-17.3-7.2-17.3-14.9c0-8.1,4.7-11,4.7-11s-17.5-0.2-17.5-19.1
		c0-6.1,4.1-11.3,8-14.2c2.4-1.8,5.8-2.8,9.3-3.2h14.9v-6.7l-10.1-0.2c-4.3-0.5-5.8-1.5-7.7-3.7c-0.8-0.8-3.1-3.5-3.1-7.8
		c0-7.1,4.9-12.1,12.5-12.1c0.1,0,0.3,0,0.4,0c-0.3-1.1-0.4-2.3-0.4-3.5c0-8.1,6.5-14.6,14.6-14.6c4.6,0,8.8,2.4,11.7,6.1
		c0.6-2.4,2.9-8.3,4.2-9.9c0,0-3.2-2.3-6.4-3.9c-2.9-1.4-6.2-1.9-9.4-1.9c-3.3,0-6.4,0.6-9.4,1.9c-2.9,1.2-5.5,3-7.7,5.2
		c-2.2,2.2-4,4.8-5.2,7.7c-0.7,1.7-1.2,3.4-1.5,5.2c-2.7,1.2-5.5,2.7-7.6,4.8c-2.2,2.1-3.9,4.5-5.1,7.2c-1.2,2.9-1.7,5.1-1.7,8.3
		c0,3.3,0.7,7.3,3.5,11.6c-3.7,2.3-6.7,4.8-8.8,8.4c-2.5,4.2-4.2,8.6-4.2,14.2c0,6,1.3,11.4,4.3,15.7c2.5,3.7,5.2,6,9,8.4
		c0.1,0.1-0.6,3.6-0.4,7.3c0.1,1.8,0.5,3.8,1,5.5c0.5,1.6,1.1,3.3,2,4.8c1.6,2.7,3.3,5.1,5.8,7.2c4.5,3.9,11.3,6.4,19.1,6.4
		c8.5,0,16-4,18.9-6c3.1-2.2,7.8-4.9,10.9-13.4c2-5.3,3.3-12.8,3.3-23.8c0-15.6,0.1-62.2,0.1-62.2c0-1.3,0.2-2.6,0.6-3.8
		c1.7-6,7.4-11,14.1-11c8.1,0,14.6,6.5,14.6,14.6c0,1.2-0.1,2.3-0.4,3.5c0.1,0,0.3,0,0.4,0c7.6,0,12.6,5,12.6,11.5
		c0,4.2-2,6.4-2.8,7.7c-2.6,3.1-7.1,4.3-11,4.7l-7.4,0v6.7l14.7,0.2c4.4,0,7.9,1.8,11.2,4.4c3.3,2.6,6.1,7.7,6.1,13.8
		c0,16.6-16.8,18.2-16.8,18.2s4.6,2.7,4.6,11.4c0,7.6-8.9,13-16.6,13c-2.5,0-7.7-0.3-12.1-2.7c-2.7-1.5-7.8-5.4-7.8-5.4
		c-1.3,3.5-3.9,8.3-4.4,9c2.9,2.1,3.2,2.6,7.2,4.8c8.7,4.7,14.7,4.9,17.1,4.9c5.9,0,11.8-2.1,16.6-5.6c2.7-2,4.2-4.1,5.8-6.7
		c0.9-1.5,1.9-3.6,2.4-5.2c0.5-1.7,1.2-5.3,1.2-7.1c0-5-0.8-6.3-0.6-6.4c3.8-2.4,6.6-5,9-8.7c2.9-4.5,4.2-9.4,4.2-15.4
		C-2048.4,732.5-2050.2,728.3-2052.7,724.1z"/>
</g>
</svg>
